<svg xmlns="http://www.w3.org/2000/svg" width="135" height="40" fill="none"><path fill="#1182B6" d="M27.2143 5.28571c5.0626 0 9.1666 4.16666 9.1666 9.99999 0 11.6667-12.5 18.3333-16.6666 20.8333-3.296-1.9775-11.80628-6.5623-15.21919-14.1666h7.82949l1.5563-2.5939 5 8.3334 3.4437-5.7395h5.723V18.619h-7.6103l-1.5564 2.5939-5-8.3333-3.4436 5.7394-7.03929-.0001c-.22677-1.0622-.3504-2.1729-.3504-3.3332 0-5.83333 4.16666-9.99999 9.16669-9.99999 3.0999 0 5.8333 1.66666 7.5 3.33333 1.6666-1.66667 4.4-3.33333 7.5-3.33333ZM51.44 28.168c-1.168 0-2.224-.2-3.168-.6-.928-.4-1.664-.976-2.208-1.728-.544-.752-.824-1.64-.84-2.664h3.6c.048.688.288 1.232.72 1.632.448.4 1.056.6 1.824.6.784 0 1.4-.184 1.848-.552.448-.384.672-.88.672-1.488 0-.496-.152-.904-.456-1.224-.304-.32-.688-.568-1.152-.744-.448-.192-1.072-.4-1.872-.624-1.088-.32-1.976-.632-2.664-.936-.672-.32-1.256-.792-1.752-1.416-.48-.64-.72-1.488-.72-2.544 0-.992.248-1.856.744-2.592s1.192-1.296 2.088-1.68c.896-.4 1.92-.6 3.072-.6 1.728 0 3.128.424 4.2 1.272 1.088.832 1.688 2 1.8 3.504H53.48c-.032-.576-.28-1.048-.744-1.416-.448-.384-1.048-.576-1.8-.576-.656 0-1.184.168-1.584.504-.384.336-.576.824-.576 1.464 0 .448.144.824.432 1.128.304.288.672.528 1.104.72.448.176 1.072.384 1.872.624 1.088.32 1.976.64 2.664.96.688.32 1.28.8 1.776 1.44.496.64.744 1.48.744 2.52 0 .896-.232 1.728-.696 2.496-.464.768-1.144 1.384-2.04 1.848-.896.448-1.96.672-3.192.672Zm16.329-13.656c1.008 0 1.904.224 2.688.672.784.432 1.392 1.08 1.824 1.944.448.848.672 1.872.672 3.072V28h-3.36v-7.344c0-1.056-.264-1.864-.792-2.424-.528-.576-1.248-.864-2.16-.864-.928 0-1.664.288-2.208.864-.528.56-.792 1.368-.792 2.424V28h-3.36V10.24h3.36v6.12c.432-.576 1.008-1.024 1.728-1.344.72-.336 1.52-.504 2.4-.504Zm10.0832-1.392c-.592 0-1.088-.184-1.488-.552-.384-.384-.576-.856-.576-1.416 0-.56.192-1.024.576-1.392.4-.384.896-.576 1.488-.576s1.08.192 1.464.576c.4.368.6.832.6 1.392 0 .56-.2 1.032-.6 1.416-.384.368-.872.552-1.464.552Zm1.656 1.584V28h-3.36V14.704h3.36Zm9.4157 2.76h-2.328V28h-3.408V17.464h-1.512v-2.76h1.512v-.672c0-1.632.464-2.832 1.392-3.6.928-.768 2.328-1.128 4.2-1.08v2.832c-.816-.016-1.384.12-1.704.408-.32.288-.48.808-.48 1.56v.552h2.328v2.76Zm8.0814 10.752c-1.28 0-2.432-.28-3.456-.84-1.024-.576-1.832-1.384-2.424-2.424-.576-1.04-.864-2.24-.864-3.6 0-1.36.296-2.56.888-3.6.608-1.04 1.432-1.84 2.472-2.4 1.04-.576 2.2-.864 3.48-.864 1.28 0 2.44.288 3.4797.864 1.04.56 1.856 1.36 2.448 2.4.608 1.04.912 2.24.912 3.6 0 1.36-.312 2.56-.936 3.6-.608 1.04-1.44 1.848-2.496 2.424-1.0397.56-2.2077.84-3.5037.84Zm0-2.928c.608 0 1.176-.144 1.704-.432.544-.304.976-.752 1.2957-1.344.32-.592.48-1.312.48-2.16 0-1.264-.336-2.232-1.0077-2.904-.656-.688-1.464-1.032-2.424-1.032s-1.768.344-2.424 1.032c-.64.672-.96 1.64-.96 2.904s.312 2.24.936 2.928c.64.672 1.44 1.008 2.4 1.008Zm10.0727-1.08c1.536-1.28 2.76-2.344 3.672-3.192.912-.864 1.672-1.76 2.28-2.688.608-.928.912-1.84.912-2.736 0-.816-.192-1.456-.576-1.92-.384-.464-.976-.696-1.776-.696s-1.416.272-1.848.816c-.432.528-.656 1.256-.672 2.184h-3.264c.064-1.92.632-3.376 1.704-4.368 1.088-.992 2.464-1.488 4.128-1.488 1.824 0 3.224.488 4.2 1.464.976.96 1.464 2.232 1.464 3.816 0 1.248-.336 2.44-1.008 3.576-.672 1.136-1.44 2.128-2.304 2.976-.864.832-1.992 1.84-3.384 3.024h7.08v2.784H105.83v-2.496l1.248-1.056Zm12.581.384v-2.64l7.848-11.232h3.912v10.944h2.112v2.928h-2.112V28h-3.36v-3.408h-8.4Zm8.616-10.272-4.92 7.344h4.92V14.32Z"/></svg>