<svg width="24" height="25" viewBox="0 0 24 25" fill="none" xmlns="http://www.w3.org/2000/svg">
<path d="M3.33946 17.5002C2.90721 16.7515 2.58277 15.9702 2.36133 15.1741C3.3338 14.6779 3.99972 13.6668 3.99972 12.5002C3.99972 11.3345 3.3348 10.324 2.36353 9.82741C2.81025 8.21651 3.65857 6.71627 4.86474 5.49001C5.7807 6.08416 6.98935 6.15534 7.99972 5.572C9.01009 4.98866 9.55277 3.90635 9.4962 2.81604C11.1613 2.3846 12.8847 2.40004 14.5031 2.81862C14.4475 3.90806 14.9901 4.98912 15.9997 5.572C17.0101 6.15532 18.2187 6.08416 19.1346 5.49007C19.7133 6.07986 20.2277 6.75151 20.66 7.50021C21.0922 8.2489 21.4167 9.03025 21.6381 9.82628C20.6656 10.3225 19.9997 11.3336 19.9997 12.5002C19.9997 13.666 20.6646 14.6764 21.6359 15.173C21.1892 16.7839 20.3409 18.2841 19.1347 19.5104C18.2187 18.9163 17.0101 18.8451 15.9997 19.4284C14.9893 20.0117 14.4467 21.0941 14.5032 22.1844C12.8382 22.6158 11.1148 22.6004 9.49633 22.1818C9.55191 21.0923 9.00929 20.0113 7.99972 19.4284C6.98938 18.8451 5.78079 18.9162 4.86484 19.5103C4.28617 18.9205 3.77172 18.2489 3.33946 17.5002ZM8.99972 17.6964C10.0911 18.3265 10.8749 19.3227 11.2503 20.4659C11.7486 20.5133 12.2502 20.514 12.7486 20.4675C13.1238 19.3237 13.9078 18.3268 14.9997 17.6964C16.0916 17.0659 17.347 16.8855 18.5252 17.1324C18.8146 16.724 19.0648 16.2892 19.2729 15.834C18.4706 14.9373 17.9997 13.7604 17.9997 12.5002C17.9997 11.24 18.4706 10.0632 19.2729 9.1665C19.1688 8.9405 19.0538 8.71822 18.9279 8.50021C18.802 8.28219 18.667 8.07148 18.5233 7.86842C17.3457 8.11476 16.0911 7.93414 14.9997 7.30405C13.9083 6.67395 13.1246 5.67768 12.7491 4.53455C12.2509 4.48714 11.7492 4.48646 11.2509 4.53292C10.8756 5.67671 10.0916 6.67364 8.99972 7.30405C7.9078 7.93447 6.65245 8.11494 5.47428 7.86803C5.18485 8.27641 4.93463 8.71117 4.72656 9.16637C5.52881 10.0631 5.99972 11.24 5.99972 12.5002C5.99972 13.7604 5.52883 14.9372 4.72656 15.8339C4.83067 16.0599 4.94564 16.2822 5.07152 16.5002C5.19739 16.7182 5.3324 16.9289 5.47612 17.132C6.65377 16.8857 7.90838 17.0663 8.99972 17.6964ZM11.9997 15.5002C10.3429 15.5002 8.99972 14.1571 8.99972 12.5002C8.99972 10.8434 10.3429 9.50021 11.9997 9.50021C13.6566 9.50021 14.9997 10.8434 14.9997 12.5002C14.9997 14.1571 13.6566 15.5002 11.9997 15.5002ZM11.9997 13.5002C12.552 13.5002 12.9997 13.0525 12.9997 12.5002C12.9997 11.9479 12.552 11.5002 11.9997 11.5002C11.4474 11.5002 10.9997 11.9479 10.9997 12.5002C10.9997 13.0525 11.4474 13.5002 11.9997 13.5002Z" fill="#9E9E9E"/>
</svg>
